<svg xmlns="http://www.w3.org/2000/svg" xmlns:xlink="http://www.w3.org/1999/xlink" width="900" zoomAndPan="magnify" viewBox="0 0 375 374.999991" height="900" preserveAspectRatio="xMidYMid meet" version="1.0"><defs><clipPath id="1cfaaf6212"><path d="M 164 170 L 211 170 L 211 232.007812 L 164 232.007812 Z M 164 170 " clip-rule="nonzero"/></clipPath><clipPath id="3c3b18a10e"><path d="M 164 109.007812 L 211 109.007812 L 211 171 L 164 171 Z M 164 109.007812 " clip-rule="nonzero"/></clipPath><clipPath id="8cfc0876df"><path d="M 187 147 L 248.9375 147 L 248.9375 194 L 187 194 Z M 187 147 " clip-rule="nonzero"/></clipPath></defs><g clip-path="url(#1cfaaf6212)"><path fill="#a6a6a6" d="M 200.90625 232.058594 L 174.050781 232.058594 C 168.871094 232.058594 164.628906 227.820312 164.628906 222.636719 L 164.628906 209.605469 L 170.910156 209.605469 L 170.910156 222.636719 C 170.910156 224.367188 172.324219 225.777344 174.050781 225.777344 L 200.90625 225.777344 C 202.632812 225.777344 204.046875 224.367188 204.046875 222.636719 L 204.046875 170.566406 L 210.328125 170.566406 L 210.328125 222.636719 C 210.328125 227.820312 206.121094 232.058594 200.90625 232.058594 Z M 200.90625 232.058594 " fill-opacity="1" fill-rule="nonzero"/></g><g clip-path="url(#3c3b18a10e)"><path fill="#03989e" d="M 170.910156 170.566406 L 164.628906 170.566406 L 164.628906 118.492188 C 164.628906 113.308594 168.871094 109.070312 174.050781 109.070312 L 200.90625 109.070312 C 206.085938 109.070312 210.328125 113.308594 210.328125 118.492188 L 210.328125 131.523438 L 204.046875 131.523438 L 204.046875 118.492188 C 204.046875 116.761719 202.632812 115.351562 200.90625 115.351562 L 174.050781 115.351562 C 172.324219 115.351562 170.910156 116.761719 170.910156 118.492188 Z M 170.910156 170.566406 " fill-opacity="1" fill-rule="nonzero"/></g><path fill="#03989e" d="M 187.496094 193.429688 L 135.421875 193.429688 C 130.238281 193.429688 126 189.1875 126 184.007812 L 126 157.152344 C 126 151.972656 130.238281 147.730469 135.421875 147.730469 L 148.457031 147.730469 L 148.457031 154.011719 L 135.421875 154.011719 C 133.695312 154.011719 132.28125 155.425781 132.28125 157.152344 L 132.28125 184.007812 C 132.28125 185.734375 133.695312 187.148438 135.421875 187.148438 L 187.496094 187.148438 Z M 187.496094 193.429688 " fill-opacity="1" fill-rule="nonzero"/><g clip-path="url(#8cfc0876df)"><path fill="#a6a6a6" d="M 239.566406 193.429688 L 226.535156 193.429688 L 226.535156 187.148438 L 239.566406 187.148438 C 241.296875 187.148438 242.707031 185.734375 242.707031 184.007812 L 242.707031 157.152344 C 242.707031 155.425781 241.296875 154.011719 239.566406 154.011719 L 187.496094 154.011719 L 187.496094 147.730469 L 239.566406 147.730469 C 244.75 147.730469 248.992188 151.972656 248.992188 157.152344 L 248.992188 184.007812 C 248.992188 189.1875 244.75 193.429688 239.566406 193.429688 Z M 239.566406 193.429688 " fill-opacity="1" fill-rule="nonzero"/></g></svg>